<svg xmlns="http://www.w3.org/2000/svg" width="960" height="340" viewBox="0 0 960 340">
  <rect width="960" height="340" fill="#f5f1f8"/>
  <text x="40" y="42" font-size="28" font-family="Microsoft YaHei, PingFang SC, sans-serif" fill="#513b56">Bucket Join / SMB Join</text>

  <text x="110" y="95" font-size="22" font-family="Microsoft YaHei, PingFang SC, sans-serif" fill="#513b56">表 A</text>
  <rect x="70" y="120" width="100" height="52" rx="10" fill="#8c6bb1"/>
  <rect x="70" y="185" width="100" height="52" rx="10" fill="#8c6bb1"/>
  <rect x="70" y="250" width="100" height="52" rx="10" fill="#8c6bb1"/>
  <text x="102" y="153" font-size="18" font-family="Microsoft YaHei, PingFang SC, sans-serif" fill="#ffffff">A1</text>
  <text x="102" y="218" font-size="18" font-family="Microsoft YaHei, PingFang SC, sans-serif" fill="#ffffff">A2</text>
  <text x="102" y="283" font-size="18" font-family="Microsoft YaHei, PingFang SC, sans-serif" fill="#ffffff">A3</text>

  <text x="760" y="95" font-size="22" font-family="Microsoft YaHei, PingFang SC, sans-serif" fill="#513b56">表 B</text>
  <rect x="730" y="120" width="100" height="52" rx="10" fill="#c06c84"/>
  <rect x="730" y="185" width="100" height="52" rx="10" fill="#c06c84"/>
  <rect x="730" y="250" width="100" height="52" rx="10" fill="#c06c84"/>
  <text x="762" y="153" font-size="18" font-family="Microsoft YaHei, PingFang SC, sans-serif" fill="#ffffff">B1</text>
  <text x="762" y="218" font-size="18" font-family="Microsoft YaHei, PingFang SC, sans-serif" fill="#ffffff">B2</text>
  <text x="762" y="283" font-size="18" font-family="Microsoft YaHei, PingFang SC, sans-serif" fill="#ffffff">B3</text>

  <rect x="350" y="145" width="250" height="120" rx="16" fill="#6c5b7b"/>
  <text x="392" y="190" font-size="22" font-family="Microsoft YaHei, PingFang SC, sans-serif" fill="#ffffff">按 bucket 对应匹配</text>
  <text x="405" y="225" font-size="20" font-family="Microsoft YaHei, PingFang SC, sans-serif" fill="#ffffff">SMB 还要求桶内有序</text>

  <line x1="170" y1="146" x2="350" y2="170" stroke="#513b56" stroke-width="4"/>
  <line x1="170" y1="211" x2="350" y2="205" stroke="#513b56" stroke-width="4"/>
  <line x1="170" y1="276" x2="350" y2="240" stroke="#513b56" stroke-width="4"/>

  <line x1="600" y1="170" x2="730" y2="146" stroke="#513b56" stroke-width="4"/>
  <line x1="600" y1="205" x2="730" y2="211" stroke="#513b56" stroke-width="4"/>
  <line x1="600" y1="240" x2="730" y2="276" stroke="#513b56" stroke-width="4"/>
</svg>
