<svg xmlns="http://www.w3.org/2000/svg" width="960" height="360" viewBox="0 0 960 360">
  <rect width="960" height="360" fill="#eef6f1"/>
  <text x="40" y="42" font-size="28" font-family="Microsoft YaHei, PingFang SC, sans-serif" fill="#244b3c">Map Join / Broadcast Join</text>

  <rect x="60" y="120" width="200" height="80" rx="14" fill="#5a8f7b"/>
  <text x="120" y="167" font-size="24" font-family="Microsoft YaHei, PingFang SC, sans-serif" fill="#ffffff">小表</text>

  <rect x="60" y="240" width="200" height="80" rx="14" fill="#7fb069"/>
  <text x="120" y="287" font-size="24" font-family="Microsoft YaHei, PingFang SC, sans-serif" fill="#ffffff">大表</text>

  <rect x="390" y="70" width="180" height="70" rx="14" fill="#d68c45"/>
  <text x="430" y="113" font-size="22" font-family="Microsoft YaHei, PingFang SC, sans-serif" fill="#ffffff">Mapper 1</text>

  <rect x="390" y="150" width="180" height="70" rx="14" fill="#d68c45"/>
  <text x="430" y="193" font-size="22" font-family="Microsoft YaHei, PingFang SC, sans-serif" fill="#ffffff">Mapper 2</text>

  <rect x="390" y="230" width="180" height="70" rx="14" fill="#d68c45"/>
  <text x="430" y="273" font-size="22" font-family="Microsoft YaHei, PingFang SC, sans-serif" fill="#ffffff">Mapper 3</text>

  <rect x="690" y="145" width="200" height="80" rx="14" fill="#355c7d"/>
  <text x="735" y="192" font-size="24" font-family="Microsoft YaHei, PingFang SC, sans-serif" fill="#ffffff">Map 端 Join</text>

  <line x1="260" y1="160" x2="390" y2="105" stroke="#244b3c" stroke-width="4"/>
  <line x1="260" y1="160" x2="390" y2="185" stroke="#244b3c" stroke-width="4"/>
  <line x1="260" y1="160" x2="390" y2="265" stroke="#244b3c" stroke-width="4"/>

  <line x1="260" y1="280" x2="390" y2="105" stroke="#244b3c" stroke-width="4" stroke-dasharray="8 8"/>
  <line x1="260" y1="280" x2="390" y2="185" stroke="#244b3c" stroke-width="4" stroke-dasharray="8 8"/>
  <line x1="260" y1="280" x2="390" y2="265" stroke="#244b3c" stroke-width="4" stroke-dasharray="8 8"/>

  <line x1="570" y1="105" x2="690" y2="185" stroke="#244b3c" stroke-width="4"/>
  <line x1="570" y1="185" x2="690" y2="185" stroke="#244b3c" stroke-width="4"/>
  <line x1="570" y1="265" x2="690" y2="185" stroke="#244b3c" stroke-width="4"/>

  <text x="275" y="145" font-size="18" font-family="Microsoft YaHei, PingFang SC, sans-serif" fill="#244b3c">广播到各个 Mapper</text>
  <text x="278" y="315" font-size="18" font-family="Microsoft YaHei, PingFang SC, sans-serif" fill="#244b3c">大表分片扫描</text>
</svg>
